<svg aria-hidden="true" style="width:0;height:0;position:absolute;overflow:hidden" xmlns="http://www.w3.org/2000/svg"><defs><symbol id="icon-header-home-logo" viewBox="0 0 32 32"><path fill="none" stroke="#fff" style="stroke:var(--color1,#fff)" stroke-linejoin="round" stroke-linecap="round" stroke-width="2.17" d="M26.427 2.667H5.574a2.907 2.907 0 0 0-2.907 2.907v20.853a2.908 2.908 0 0 0 2.907 2.907h20.853a2.908 2.908 0 0 0 2.907-2.907V5.574a2.908 2.908 0 0 0-2.907-2.907zm-17.094 0v26.666M22.667 2.667v26.666M2.667 16h26.666M2.667 9.334h6.666M2.667 22.666h6.666m13.334 0h6.666M22.667 9.334h6.666"/></symbol><symbol id="icon-header-home-search" viewBox="0 0 32 32"><path stroke-linejoin="round" stroke-linecap="round" stroke-width="2.286" d="m14.667 25.333.156.001c5.891 0 10.667-4.776 10.667-10.667S20.714 4 14.823 4l-.164.001h.008c-5.824.088-10.511 4.83-10.511 10.666s4.687 10.578 10.503 10.666h.008zM28 28l-5.803-5.801"/></symbol><symbol id="icon-login-svgrepo-com" viewBox="0 0 32 32"><path d="M0 16.003c0 .609.494 1.103 1.103 1.103h21.004l-4.097 4.091a1.102 1.102 0 0 0 .776 1.879c.282 0 .564-.109.776-.321l5.969-5.969c.43-.43.43-1.128 0-1.558l-5.969-5.969a1.102 1.102 0 0 0-1.558 1.558l4.091 4.091H1.104c-.609 0-1.103.487-1.103 1.096z"/><path d="M25.415 31.686c3.635 0 6.585-2.956 6.585-6.591V6.905C32 3.27 29.044.314 25.415.314H7.225C3.59.314.64 3.27.64 6.905v3.738c0 .609.494 1.096 1.096 1.096.609 0 1.103-.494 1.103-1.096V6.905a4.397 4.397 0 0 1 4.386-4.392h18.19a4.393 4.393 0 0 1 4.386 4.392v18.19a4.397 4.397 0 0 1-4.386 4.392H7.225a4.393 4.393 0 0 1-4.386-4.392v-3.693c0-.609-.494-1.103-1.103-1.103S.64 20.793.64 21.402v3.693c0 3.635 2.956 6.591 6.585 6.591h18.19z"/><symbol id="icon-footer_heart" viewBox="0 0 34 32"><path d="m17.231 31.705-2.412-2.412C5.859 21.367.001 16.025.001 9.478.001 4.136 4.136.001 9.478.001c2.929 0 5.858 1.378 7.754 3.618 1.895-2.24 4.825-3.618 7.754-3.618 5.342 0 9.477 4.135 9.477 9.477 0 6.548-5.858 11.889-14.818 19.815l-2.412 2.412z"/></symbol><symbol id="icon-github-logo" viewBox="0 0 33 32"><path d="M16.362.068C7.32.068 0 7.388 0 16.43c0 7.177 4.665 13.348 11.195 15.501.789.144 1.076-.359 1.076-.789v-3.086c-4.521 1.005-5.526-1.938-5.526-1.938-.718-1.866-1.794-2.368-1.794-2.368-1.507-1.005.144-1.005.144-1.005 1.579.144 2.44 1.722 2.44 1.722 1.507 2.512 3.875 1.794 4.808 1.364.144-1.076.574-1.794 1.005-2.225-3.588-.431-7.464-1.794-7.464-8.038 0-1.794.646-3.229 1.722-4.378-.215-.431-.718-2.081.144-4.378 0 0 1.364-.431 4.521 1.722a15.214 15.214 0 0 1 4.091-.574c1.364 0 2.727.215 4.091.574 3.086-2.153 4.449-1.722 4.449-1.722.933 2.296.359 3.947.144 4.378 1.076 1.148 1.722 2.584 1.722 4.378 0 6.244-3.804 7.607-7.464 8.038.574.502 1.076 1.507 1.076 3.014v4.521c0 .431.287.933 1.148.789 6.459-2.225 11.124-8.325 11.124-15.501 0-9.042-7.32-16.362-16.291-16.362z"/></symbol><symbol id="icon-modal-close" viewBox="0 0 32 32"><path d="m17.253 16 7.37-7.37a.89.89 0 0 0-1.256-1.252l.001-.001L16 14.747 8.63 7.369a.893.893 0 0 0-1.262 1.262l-.001-.001L14.745 16l-7.376 7.368a.89.89 0 1 0 1.252 1.256l.001-.001 7.376-7.37 7.37 7.37a.89.89 0 0 0 1.254-1.256l.001.001L17.253 16z"/></symbol><symbol id="icon-play" viewBox="0 0 32 32"><path d="M16 0C7.163 0 0 7.163 0 16s7.163 16 16 16 16-7.163 16-16S24.837 0 16 0zm0 29C8.82 29 3 23.18 3 16S8.82 3 16 3s13 5.82 13 13-5.82 13-13 13zM12 9l12 7-12 7z"/></symbol><symbol id="icon-close" viewBox="0 0 32 32"><path d="M31.439 3.166 28.273 0 15.719 12.552 3.167 0 .001 3.166l12.552 12.552L.001 28.272l3.166 3.166 12.552-12.554 12.554 12.554 3.166-3.166-12.554-12.554L31.439 3.166z"/></symbol></symbol></defs></svg>