<svg aria-hidden="true" style="position: absolute; width: 0; height: 0; overflow: hidden;" version="1.1" xmlns="http://www.w3.org/2000/svg" xmlns:xlink="http://www.w3.org/1999/xlink">
<defs>
<symbol id="icon-header-home-logo" viewBox="0 0 32 32">
<path fill="none" stroke="#fff" style="stroke: var(--color1, #fff)" stroke-linejoin="round" stroke-linecap="round" stroke-miterlimit="4" stroke-width="2.1695" d="M26.427 2.667h-20.853c-1.605 0-2.907 1.301-2.907 2.907v20.853c0 1.605 1.302 2.907 2.907 2.907h20.853c1.605 0 2.907-1.302 2.907-2.907v-20.853c0-1.605-1.302-2.907-2.907-2.907zM9.333 2.667v26.666M22.667 2.667v26.666M2.667 16h26.666M2.667 9.334h6.666M2.667 22.666h6.666M22.667 22.666h6.666M22.667 9.334h6.666"></path>
</symbol>
<symbol id="icon-header-home-search" viewBox="0 0 32 32">
<path stroke-linejoin="round" stroke-linecap="round" stroke-miterlimit="4" stroke-width="2.2857" d="M14.667 25.333c0.046 0.001 0.101 0.001 0.156 0.001 5.891 0 10.667-4.776 10.667-10.667s-4.776-10.667-10.667-10.667c-0.055 0-0.11 0-0.164 0.001l0.008-0c-5.824 0.088-10.511 4.83-10.511 10.666s4.687 10.578 10.503 10.666l0.008 0zM28 28l-5.803-5.801"></path>
</symbol>
<symbol id="icon-login-svgrepo-com" viewBox="0 0 32 32">
<path d="M0 16.003c0 0.609 0.494 1.103 1.103 1.103h21.004l-4.097 4.091c-0.43 0.43-0.43 1.128 0 1.558 0.212 0.212 0.494 0.321 0.776 0.321s0.564-0.109 0.776-0.321l5.969-5.969c0.43-0.43 0.43-1.128 0-1.558l-5.969-5.969c-0.43-0.43-1.128-0.43-1.558 0s-0.43 1.128 0 1.558l4.091 4.091h-20.991c-0.609 0-1.103 0.487-1.103 1.096z"></path>
<path d="M25.415 31.686c3.635 0 6.585-2.956 6.585-6.591v-18.19c0-3.635-2.956-6.591-6.585-6.591h-18.19c-3.635 0-6.585 2.956-6.585 6.591v3.738c0 0.609 0.494 1.096 1.096 1.096 0.609 0 1.103-0.494 1.103-1.096v-3.738c0-2.417 1.968-4.392 4.386-4.392h18.19c2.417 0 4.386 1.968 4.386 4.392v18.19c0 2.417-1.968 4.392-4.386 4.392h-18.19c-2.417 0-4.386-1.968-4.386-4.392v-3.693c0-0.609-0.494-1.103-1.103-1.103s-1.096 0.494-1.096 1.103v3.693c0 3.635 2.956 6.591 6.585 6.591h18.19z"></path>
<symbol id="icon-footer_heart" viewBox="0 0 34 32">
<path d="M17.231 31.705l-2.412-2.412c-8.96-7.926-14.818-13.268-14.818-19.815 0-5.342 4.135-9.477 9.477-9.477 2.929 0 5.858 1.378 7.754 3.618 1.895-2.24 4.825-3.618 7.754-3.618 5.342 0 9.477 4.135 9.477 9.477 0 6.548-5.858 11.889-14.818 19.815l-2.412 2.412z"></path>
</symbol>
<symbol id="icon-github-logo" viewBox="0 0 33 32">
<path d="M16.362 0.068c-9.042 0-16.362 7.32-16.362 16.362 0 7.177 4.665 13.348 11.195 15.501 0.789 0.144 1.076-0.359 1.076-0.789s0-1.722 0-3.086c-4.521 1.005-5.526-1.938-5.526-1.938-0.718-1.866-1.794-2.368-1.794-2.368-1.507-1.005 0.144-1.005 0.144-1.005 1.579 0.144 2.44 1.722 2.44 1.722 1.507 2.512 3.875 1.794 4.808 1.364 0.144-1.076 0.574-1.794 1.005-2.225-3.588-0.431-7.464-1.794-7.464-8.038 0-1.794 0.646-3.229 1.722-4.378-0.215-0.431-0.718-2.081 0.144-4.378 0 0 1.364-0.431 4.521 1.722 1.292-0.359 2.655-0.574 4.091-0.574 1.364 0 2.727 0.215 4.091 0.574 3.086-2.153 4.449-1.722 4.449-1.722 0.933 2.296 0.359 3.947 0.144 4.378 1.076 1.148 1.722 2.584 1.722 4.378 0 6.244-3.804 7.607-7.464 8.038 0.574 0.502 1.076 1.507 1.076 3.014 0 2.225 0 3.947 0 4.521 0 0.431 0.287 0.933 1.148 0.789 6.459-2.225 11.124-8.325 11.124-15.501 0-9.042-7.32-16.362-16.291-16.362z"></path>
</symbol>
<symbol id="icon-modal-close" viewBox="0 0 32 32">
<path d="M17.253 16l7.37-7.37c0.13-0.154 0.209-0.354 0.209-0.573 0-0.491-0.398-0.89-0.89-0.89-0.219 0-0.42 0.079-0.575 0.211l0.001-0.001-7.368 7.37-7.37-7.378c-0.159-0.147-0.372-0.237-0.606-0.237-0.493 0-0.893 0.4-0.893 0.893 0 0.234 0.090 0.447 0.237 0.606l-0.001-0.001 7.378 7.37-7.376 7.368c-0.194 0.164-0.316 0.408-0.316 0.68 0 0.491 0.398 0.89 0.89 0.89 0.272 0 0.515-0.122 0.678-0.314l0.001-0.001 7.376-7.37 7.37 7.37c0.155 0.133 0.357 0.214 0.579 0.214 0.491 0 0.89-0.398 0.89-0.89 0-0.222-0.081-0.424-0.215-0.58l0.001 0.001-7.37-7.368z"></path>
</symbol>
<symbol id="icon-play" viewBox="0 0 32 32">
<path d="M16 0c-8.837 0-16 7.163-16 16s7.163 16 16 16 16-7.163 16-16-7.163-16-16-16zM16 29c-7.18 0-13-5.82-13-13s5.82-13 13-13 13 5.82 13 13-5.82 13-13 13zM12 9l12 7-12 7z"></path>
</symbol>
<symbol id="icon-close" viewBox="0 0 32 32">
<path d="M31.439 3.166l-3.166-3.166-12.554 12.552-12.552-12.552-3.166 3.166 12.552 12.552-12.552 12.554 3.166 3.166 12.552-12.554 12.554 12.554 3.166-3.166-12.554-12.554 12.554-12.552z"></path>
</symbol>
</defs>
</svg>
